<svg width="24" height="24" viewBox="0 0 24 24" fill="none" xmlns="http://www.w3.org/2000/svg">
<path fill-rule="evenodd" clip-rule="evenodd" d="M7.74497 2.05865C8.78732 2.01066 9.11967 2 11.7749 2C14.4301 2 14.7624 2.01155 15.8039 2.05865C16.8454 2.10575 17.5563 2.27192 18.1783 2.51274C18.8297 2.75889 19.4206 3.14366 19.9094 3.64129C20.407 4.12915 20.7909 4.71919 21.0361 5.37145C21.2778 5.99348 21.4431 6.70438 21.4911 7.74408C21.5391 8.78821 21.5498 9.12056 21.5498 11.7749C21.5498 14.4301 21.5382 14.7624 21.4911 15.8048C21.444 16.8445 21.2778 17.5554 21.0361 18.1774C20.7909 18.8298 20.4064 19.4208 19.9094 19.9094C19.4206 20.407 18.8297 20.7909 18.1783 21.0361C17.5563 21.2778 16.8454 21.4431 15.8057 21.4911C14.7624 21.5391 14.4301 21.5498 11.7749 21.5498C9.11967 21.5498 8.78732 21.5382 7.74497 21.4911C6.70527 21.444 5.99437 21.2778 5.37233 21.0361C4.72001 20.7908 4.12899 20.4063 3.6404 19.9094C3.14311 19.4212 2.75828 18.8305 2.51274 18.1783C2.27192 17.5563 2.10664 16.8454 2.05865 15.8057C2.01066 14.7616 2 14.4292 2 11.7749C2 9.11967 2.01155 8.78732 2.05865 7.74585C2.10575 6.70438 2.27192 5.99348 2.51274 5.37145C2.75864 4.71927 3.14377 4.12854 3.64129 3.6404C4.12918 3.14322 4.71961 2.75839 5.37145 2.51274C5.99348 2.27192 6.70438 2.10664 7.74408 2.05865H7.74497ZM15.7248 3.81813C14.694 3.77103 14.3848 3.76126 11.7749 3.76126C9.16499 3.76126 8.85575 3.77103 7.82494 3.81813C6.87145 3.86167 6.35427 4.02073 6.00948 4.15492C5.55361 4.33264 5.22749 4.54325 4.88537 4.88537C4.56106 5.20088 4.31148 5.58497 4.15492 6.00948C4.02073 6.35427 3.86167 6.87145 3.81813 7.82494C3.77103 8.85575 3.76126 9.16499 3.76126 11.7749C3.76126 14.3848 3.77103 14.694 3.81813 15.7248C3.86167 16.6783 4.02073 17.1955 4.15492 17.5403C4.31132 17.9642 4.56102 18.3489 4.88537 18.6644C5.20083 18.9887 5.5856 19.2385 6.00948 19.3948C6.35427 19.529 6.87145 19.6881 7.82494 19.7316C8.85575 19.7787 9.1641 19.7885 11.7749 19.7885C14.3857 19.7885 14.694 19.7787 15.7248 19.7316C16.6783 19.6881 17.1955 19.529 17.5403 19.3948C17.9962 19.2171 18.3223 19.0065 18.6644 18.6644C18.9887 18.3489 19.2385 17.9642 19.3948 17.5403C19.529 17.1955 19.6881 16.6783 19.7316 15.7248C19.7787 14.694 19.7885 14.3848 19.7885 11.7749C19.7885 9.16499 19.7787 8.85575 19.7316 7.82494C19.6881 6.87145 19.529 6.35427 19.3948 6.00948C19.2171 5.55361 19.0065 5.22749 18.6644 4.88537C18.3489 4.56108 17.9648 4.3115 17.5403 4.15492C17.1955 4.02073 16.6783 3.86167 15.7248 3.81813ZM10.5264 14.7882C11.2236 15.0785 12 15.1176 12.723 14.899C13.4459 14.6804 14.0706 14.2176 14.4902 13.5897C14.9098 12.9617 15.0984 12.2075 15.0237 11.456C14.9491 10.7044 14.6158 10.0021 14.0809 9.4689C13.7398 9.12809 13.3275 8.86713 12.8735 8.70481C12.4195 8.54249 11.9352 8.48284 11.4554 8.53017C10.9756 8.57749 10.5123 8.73061 10.0988 8.97849C9.68524 9.22638 9.33182 9.56287 9.06395 9.96373C8.79609 10.3646 8.62043 10.8199 8.54963 11.2968C8.47883 11.7737 8.51465 12.2603 8.65451 12.7217C8.79437 13.1831 9.03479 13.6078 9.35846 13.9651C9.68213 14.3224 10.081 14.6035 10.5264 14.7882ZM8.22216 8.22216C8.68871 7.75561 9.24258 7.38552 9.85216 7.13302C10.4617 6.88053 11.1151 6.75057 11.7749 6.75057C12.4347 6.75057 13.088 6.88053 13.6976 7.13302C14.3072 7.38552 14.8611 7.75561 15.3276 8.22216C15.7942 8.68871 16.1642 9.24258 16.4167 9.85216C16.6692 10.4617 16.7992 11.1151 16.7992 11.7749C16.7992 12.4347 16.6692 13.088 16.4167 13.6976C16.1642 14.3072 15.7942 14.8611 15.3276 15.3276C14.3854 16.2698 13.1074 16.7992 11.7749 16.7992C10.4424 16.7992 9.1644 16.2698 8.22216 15.3276C7.27992 14.3854 6.75057 13.1074 6.75057 11.7749C6.75057 10.4424 7.27992 9.1644 8.22216 8.22216ZM17.9135 7.49882C18.0291 7.38975 18.1217 7.2586 18.1857 7.11313C18.2497 6.96765 18.2839 6.81081 18.2862 6.65189C18.2885 6.49297 18.2589 6.3352 18.1992 6.18792C18.1394 6.04065 18.0507 5.90685 17.9384 5.79447C17.826 5.68208 17.6922 5.59339 17.5449 5.53364C17.3976 5.47388 17.2398 5.44429 17.0809 5.44661C16.922 5.44893 16.7652 5.48311 16.6197 5.54712C16.4742 5.61114 16.3431 5.7037 16.234 5.81931C16.0219 6.04416 15.9058 6.34282 15.9103 6.65189C15.9148 6.96097 16.0396 7.25611 16.2581 7.47468C16.4767 7.69325 16.7719 7.81804 17.0809 7.82254C17.39 7.82705 17.6887 7.71092 17.9135 7.49882Z" fill="#0048AB"/>
</svg>
