<svg width="23" height="23" viewBox="0 0 23 23" fill="none" xmlns="http://www.w3.org/2000/svg">
<path d="M16.6707 12.2198V15.9466H14.5105V12.4688C14.5105 11.5958 14.198 11 13.4157 11C12.8189 11 12.4631 11.4012 12.3068 11.7903C12.2504 11.9294 12.2352 12.123 12.2352 12.3165V15.9466H10.074C10.074 15.9466 10.1032 10.0575 10.074 9.44758H12.2352V10.3679L12.2211 10.3891H12.2352V10.369C12.5225 9.9254 13.0346 9.29435 14.1828 9.29435C15.6042 9.29435 16.6707 10.2238 16.6707 12.2198ZM7.81287 6.31351C7.07396 6.31351 6.59009 6.79939 6.59009 7.43649C6.59009 8.06149 7.05985 8.56048 7.78464 8.56048H7.79876C8.55279 8.56048 9.02154 8.06048 9.02154 7.43649C9.00743 6.79939 8.55279 6.31351 7.81287 6.31351ZM6.71811 15.9466H8.8794V9.44758H6.71811V15.9466Z" fill="#0048AB"/>
<path d="M5.58206 3.01613C5.04735 3.01613 4.53454 3.22854 4.15644 3.60664C3.77835 3.98474 3.56593 4.49755 3.56593 5.03226V17.129C3.56593 17.6637 3.77835 18.1766 4.15644 18.5546C4.53454 18.9327 5.04735 19.1452 5.58206 19.1452H17.6788C18.2135 19.1452 18.7264 18.9327 19.1045 18.5546C19.4826 18.1766 19.695 17.6637 19.695 17.129V5.03226C19.695 4.49755 19.4826 3.98474 19.1045 3.60664C18.7264 3.22854 18.2135 3.01613 17.6788 3.01613H5.58206ZM5.58206 1H17.6788C18.7483 1 19.7739 1.42483 20.5301 2.18102C21.2863 2.93722 21.7111 3.96284 21.7111 5.03226V17.129C21.7111 18.1985 21.2863 19.2241 20.5301 19.9803C19.7739 20.7365 18.7483 21.1613 17.6788 21.1613H5.58206C4.51264 21.1613 3.48702 20.7365 2.73083 19.9803C1.97463 19.2241 1.5498 18.1985 1.5498 17.129V5.03226C1.5498 3.96284 1.97463 2.93722 2.73083 2.18102C3.48702 1.42483 4.51264 1 5.58206 1V1Z" fill="#0048AB"/>
</svg>
